<svg xmlns="http://www.w3.org/2000/svg" xmlns:xlink="http://www.w3.org/1999/xlink" viewBox="0 0 360 640"><defs><style>.a{clip-path:url(#i);}.b,.c,.n{fill:none;}.c{stroke:#fff;stroke-dasharray:8 10;fill-rule:evenodd;}.d{fill:#fff;}.e{fill:#43dcd3;opacity:0.59;}.f{fill:#edf7ff;}.g{fill:#d5ffda;}.h{fill:#e2deff;}.i{fill:url(#c);}.j{fill:url(#d);}.k{fill:url(#e);}.l{fill:#64798a;}.m,.o{fill:#00c9fe;}.n{stroke:#00d8cb;stroke-linecap:round;stroke-linejoin:round;stroke-miterlimit:10;}.o{font-size:58px;}.o,.p{font-family:SegoeUI, Segoe UI;}.p{fill:#05c2fc;font-size:40px;}.q{opacity:0.47;}.r{fill:#d7f0fc;}.s{fill:#b9def0;}.t{fill:#46bce0;}.u{filter:url(#f);}.v{filter:url(#a);}</style><filter id="a" x="-54" y="123.141" width="454" height="497.446" filterUnits="userSpaceOnUse"><feOffset dy="3" input="SourceAlpha"/><feGaussianBlur stdDeviation="3" result="b"/><feFlood flood-color="#ff2c2c" flood-opacity="0.761"/><feComposite operator="in" in2="b"/><feComposite in="SourceGraphic"/></filter><linearGradient id="c" x1="0.868" y1="0.958" x2="0.236" y2="0.228" gradientUnits="objectBoundingBox"><stop offset="0" stop-color="#fff"/><stop offset="1" stop-color="#006b9b"/></linearGradient><linearGradient id="d" x1="0.034" y1="0.112" x2="0.799" y2="0.772" xlink:href="#c"/><linearGradient id="e" x1="0.5" x2="0.5" y2="1" gradientUnits="objectBoundingBox"><stop offset="0" stop-color="#fff"/><stop offset="1" stop-color="#ffdef1"/></linearGradient><filter id="f" x="-59" y="126.662" width="454" height="525.338" filterUnits="userSpaceOnUse"><feOffset dy="3" input="SourceAlpha"/><feGaussianBlur stdDeviation="3" result="g"/><feFlood flood-color="#006fff"/><feComposite operator="in" in2="g"/><feComposite in="SourceGraphic"/></filter><clipPath id="i"><rect width="360" height="640"/></clipPath></defs><g id="h" class="a"><rect class="t" width="360" height="640"/><path class="b" d="M-200.906,302" transform="translate(335 18)"/><g transform="matrix(0.839, -0.545, 0.545, 0.839, 205.151, 311.719)"><g transform="matrix(0.951, 0.309, -0.309, 0.951, 52.616, -33.35)"><path class="c" d="M0,204.71S74,53.54,232.571,112.739" transform="translate(0 0)"/></g><g transform="translate(100.767 38.518) rotate(-18)"><path class="c" d="M232.571,204.71S158.571,53.54,0,112.739" transform="translate(0 0)"/></g><g transform="translate(136.198 163.016) rotate(-176)"><g transform="translate(0 2.514)"><path class="d" d="M2.258,71.859,0,74.118,6.312,76.59,9.85,73.051Z" transform="translate(0 -71.859)"/></g><g transform="translate(0.035 0)"><g transform="translate(0 0)"><path class="d" d="M18.63.853C18.2.425,17.461.383,16.488.731a5.185,5.185,0,0,0-1.707.978L5.961,10.53l-3.363.2L.985,12.339,3.62,13.611l1.251-1.251,1.47.026L4.629,14.1l.005,0L3.612,15.123l.748.748L5.381,14.85l0,.01L7.1,13.145v1.5L5.874,15.869,7.144,18.5l1.612-1.612.2-3.363L17.774,4.7A5.184,5.184,0,0,0,18.752,3C19.1,2.022,19.058,1.282,18.63.853Z" transform="translate(-0.985 -0.498)"/></g></g><g transform="translate(10.84 8.174)"><path class="d" d="M311.266,232.564l-3.533,3.533,2.462,6.286,2.258-2.258Z" transform="translate(-307.733 -232.564)"/></g></g><g transform="translate(255.868 163.059) rotate(-176)"><g transform="translate(8.185 2.514)"><path class="d" d="M7.591,71.859,9.85,74.118,3.538,76.59,0,73.051Z" transform="translate(0 -71.859)"/></g><g transform="translate(0 0)"><g transform="translate(0 0)"><path class="d" d="M1.341.853C1.769.425,2.51.383,3.482.731a5.185,5.185,0,0,1,1.707.978L14.01,10.53l3.363.2,1.613,1.613L16.35,13.611,15.1,12.359l-1.47.026L15.341,14.1l-.005,0,1.022,1.022-.748.748L14.589,14.85l0,.01-1.715-1.715v1.5L14.1,15.869,12.826,18.5l-1.612-1.612-.2-3.363L2.2,4.7A5.184,5.184,0,0,1,1.219,3C.87,2.022.912,1.282,1.341.853Z" transform="translate(-0.985 -0.498)"/></g></g><g transform="translate(2.475 8.174)"><g transform="translate(0)"><path class="d" d="M308.921,232.564l3.533,3.533-2.462,6.286-2.258-2.258Z" transform="translate(-307.733 -232.564)"/></g></g></g></g><g transform="matrix(0.839, -0.545, 0.545, 0.839, 205.151, 311.719)"><g transform="matrix(0.951, 0.309, -0.309, 0.951, 52.616, -33.35)"><path class="c" d="M0,204.71S74,53.54,232.571,112.739" transform="translate(0 0)"/></g><g transform="translate(100.767 38.518) rotate(-18)"><path class="c" d="M232.571,204.71S158.571,53.54,0,112.739" transform="translate(0 0)"/></g><g transform="translate(136.198 163.016) rotate(-176)"><g transform="translate(0 2.514)"><path class="d" d="M2.258,71.859,0,74.118,6.312,76.59,9.85,73.051Z" transform="translate(0 -71.859)"/></g><g transform="translate(0.035 0)"><g transform="translate(0 0)"><path class="d" d="M18.63.853C18.2.425,17.461.383,16.488.731a5.185,5.185,0,0,0-1.707.978L5.961,10.53l-3.363.2L.985,12.339,3.62,13.611l1.251-1.251,1.47.026L4.629,14.1l.005,0L3.612,15.123l.748.748L5.381,14.85l0,.01L7.1,13.145v1.5L5.874,15.869,7.144,18.5l1.612-1.612.2-3.363L17.774,4.7A5.184,5.184,0,0,0,18.752,3C19.1,2.022,19.058,1.282,18.63.853Z" transform="translate(-0.985 -0.498)"/></g></g><g transform="translate(10.84 8.174)"><path class="d" d="M311.266,232.564l-3.533,3.533,2.462,6.286,2.258-2.258Z" transform="translate(-307.733 -232.564)"/></g></g><g transform="translate(255.868 163.059) rotate(-176)"><g transform="translate(8.185 2.514)"><path class="d" d="M7.591,71.859,9.85,74.118,3.538,76.59,0,73.051Z" transform="translate(0 -71.859)"/></g><g transform="translate(0 0)"><g transform="translate(0 0)"><path class="d" d="M1.341.853C1.769.425,2.51.383,3.482.731a5.185,5.185,0,0,1,1.707.978L14.01,10.53l3.363.2,1.613,1.613L16.35,13.611,15.1,12.359l-1.47.026L15.341,14.1l-.005,0,1.022,1.022-.748.748L14.589,14.85l0,.01-1.715-1.715v1.5L14.1,15.869,12.826,18.5l-1.612-1.612-.2-3.363L2.2,4.7A5.184,5.184,0,0,1,1.219,3C.87,2.022.912,1.282,1.341.853Z" transform="translate(-0.985 -0.498)"/></g></g><g transform="translate(2.475 8.174)"><g transform="translate(0)"><path class="d" d="M308.921,232.564l3.533,3.533-2.462,6.286-2.258-2.258Z" transform="translate(-307.733 -232.564)"/></g></g></g></g><g transform="translate(-3 -32)"><g class="v" transform="matrix(1, 0, 0, 1, 3, 32)"><path class="e" d="M0,2.5S57.229,41.144,99.527,25.546s86.881-90.992,86.881-90.992S175.683,56.8,242.385,72.4,436,2.5,436,2.5V414H0Z" transform="translate(-45 194.59)"/></g><g transform="translate(-25 -190.068)"><g transform="translate(146.733 279.796) rotate(-17)"><path class="f" d="M1.86,77.31,0,75.45l1.86-1.86,1.86,1.86Zm4.754-4.754L4.754,70.7,7.545,67.9l1.86,1.86ZM12.3,66.975l-1.86-1.86,2.791-2.791,1.86,1.86Zm5.581-5.684-1.86-1.86,2.791-2.791,1.86,1.86Zm5.684-5.685-1.86-1.86L24.5,50.954l1.86,1.86Zm5.685-5.684-1.86-1.86L30.18,45.27l1.86,1.86Zm5.684-5.685-1.86-1.86,2.791-2.791,1.86,1.86Zm5.685-5.581-1.964-1.964L41.446,33.9l1.86,1.86ZM46.3,32.971l-1.86-1.86,2.791-2.791,1.86,1.86Zm5.581-5.685-1.86-1.86,2.791-2.791,1.86,1.86ZM57.569,21.6l-1.86-1.86L58.5,16.95l1.86,1.86Zm5.685-5.685-1.86-1.86,2.791-2.791,1.86,1.861Z" transform="translate(0)"/><path class="g" d="M3.928,9.405,0,5.478,4.858.62a2.121,2.121,0,0,1,3,0l.93.827a2.121,2.121,0,0,1,0,3Z" transform="translate(58.809 50.644)"/><path class="f" d="M3.928,9.405,0,5.478,4.858.62a2.121,2.121,0,0,1,3,0l.827.827a2.121,2.121,0,0,1,0,3Z" transform="translate(56.329 40.516)"/><path class="g" d="M0,5.478,3.928,9.405,8.785,4.548a2.121,2.121,0,0,0,0-3L7.958.62a2.121,2.121,0,0,0-3,0Z" transform="translate(17.261 9.095)"/><path class="f" d="M0,5.374,3.928,9.3,8.785,4.444a2.121,2.121,0,0,0,0-3L7.958.62a2.121,2.121,0,0,0-3,0Z" transform="translate(27.389 11.679)"/></g><path class="h" d="M28.526,26.459l-2.067,2.067L0,2.067,2.067,0,20.878,7.648Z" transform="translate(160.928 326.577) rotate(-17)"/><path class="i" d="M17.364,44.236,0,13.643,13.643,0,21.6,40.1Z" transform="translate(197.306 295.677) rotate(-17)"/><path class="j" d="M0,4.238,30.593,21.6,44.236,7.959,4.134,0Z" transform="translate(153.204 290.355) rotate(-17)"/><g transform="translate(156.268 289.418) rotate(-17)"><path class="g" d="M0,1.034l38.138,9.819,2.894-2.894L.93,0Z"/><path class="g" d="M9.819,41.032,0,2.894,2.894,0l7.958,40.1Z" transform="translate(48.164 17.984)"/></g><path class="k" d="M59,4.7A29.2,29.2,0,0,1,50.83,21.44L7.214,58.028a4.316,4.316,0,0,1-5.891-.31,4.316,4.316,0,0,1-.31-5.891L37.6,8.211A28.281,28.281,0,0,1,54.344.046a3.977,3.977,0,0,1,3.411,1.137A4.054,4.054,0,0,1,59,4.7Z" transform="translate(158.402 285.368) rotate(-17)"/><path class="l" d="M8.062,9.715a1.173,1.173,0,0,1-.31-.827A6.661,6.661,0,0,0,1.137,2.274,1.147,1.147,0,0,1,0,1.137,1.147,1.147,0,0,1,1.137,0a9,9,0,0,1,8.992,8.992,1.147,1.147,0,0,1-1.137,1.137A1.311,1.311,0,0,1,8.062,9.715Z" transform="translate(201.265 278.579) rotate(-17)"/></g><g class="u" transform="matrix(1, 0, 0, 1, 3, 32)"><path class="d" d="M0,3.738S57.229,43.5,99.527,27.45s90.83-107.624,90.83-107.624S175.683,59.61,242.385,75.661,436,3.738,436,3.738V427.164H0Z" transform="translate(-50 212.84)"/></g><g transform="translate(40 617.588)"><g transform="translate(0 0)"><path class="m" d="M13.624,52.156a3.817,3.817,0,0,1,3.817,3.817,3.708,3.708,0,0,1-.034.479A3.814,3.814,0,0,1,9.823,56.3c-.009-.107-.016-.216-.016-.326A3.816,3.816,0,0,1,13.624,52.156Zm1.911,2.379-.778.779a1.318,1.318,0,0,1,.139.335h1.1A2.358,2.358,0,0,0,15.535,54.535ZM16,56.31H14.892a1.28,1.28,0,0,1-.139.331l.78.78A2.388,2.388,0,0,0,16,56.31Zm-2.043,2.035a2.378,2.378,0,0,0,1.107-.46l-.776-.776a1.314,1.314,0,0,1-.331.134Zm0-3.641a1.326,1.326,0,0,1,.337.141l.777-.777a2.372,2.372,0,0,0-1.115-.461Zm-.661-1.1a2.376,2.376,0,0,0-1.115.462l.777.777a1.326,1.326,0,0,1,.337-.141V53.6Zm0,4.739v-1.1a1.3,1.3,0,0,1-.331-.135l-.776.776A2.379,2.379,0,0,0,13.293,58.344Zm-1.581-.92.783-.784a1.29,1.29,0,0,1-.142-.33h-1.1A2.381,2.381,0,0,0,11.713,57.424Zm.639-1.775a1.337,1.337,0,0,1,.139-.335l-.779-.779a2.383,2.383,0,0,0-.457,1.114h1.1Z" transform="translate(28.134 -41.79)"/><path class="m" d="M75.633,52.156a3.817,3.817,0,0,1,3.817,3.817,3.706,3.706,0,0,1-.034.479,3.814,3.814,0,0,1-7.585-.154c-.009-.107-.016-.216-.016-.326A3.816,3.816,0,0,1,75.633,52.156Zm1.911,2.379-.777.779a1.318,1.318,0,0,1,.139.335H78A2.364,2.364,0,0,0,77.544,54.535Zm.462,1.775H76.9a1.28,1.28,0,0,1-.139.331l.78.78A2.368,2.368,0,0,0,78.006,56.31Zm-2.043,2.035a2.378,2.378,0,0,0,1.107-.46l-.776-.776a1.314,1.314,0,0,1-.331.134Zm0-3.641a1.326,1.326,0,0,1,.337.141l.777-.777a2.37,2.37,0,0,0-1.115-.461ZM75.3,53.6a2.376,2.376,0,0,0-1.115.462l.777.777A1.29,1.29,0,0,1,75.3,54.7Zm0,4.739v-1.1a1.3,1.3,0,0,1-.331-.135l-.776.776A2.381,2.381,0,0,0,75.3,58.344Zm-1.58-.92.783-.783a1.276,1.276,0,0,1-.142-.331h-1.1A2.376,2.376,0,0,0,73.722,57.424Zm.639-1.775a1.318,1.318,0,0,1,.139-.335l-.779-.779a2.383,2.383,0,0,0-.457,1.114h1.1Z" transform="translate(-65.572 -41.79)"/><path class="m" d="M.894,40.266V37.442a.92.92,0,0,1,.779-.909,37.6,37.6,0,0,0,3.844-.751c1.23-.379,5.982-2.391,7.627-2.769s9.067-2.395,16.175.069c1.2.417,6.613,3,9.795,4.348.937.02,10.211,1.954,10.7,3.279a21.429,21.429,0,0,1,.74,2.3,5.434,5.434,0,0,1-.689,3.067,11.069,11.069,0,0,1-3.618.843c.018-.1.037-.19.05-.286a4.4,4.4,0,0,0,.04-.575,4.584,4.584,0,1,0-9.168,0c0,.13.009.259.018.385a4.461,4.461,0,0,0,.149.825h-.012l-22.755-.458c.01-.059.024-.117.031-.177a4.378,4.378,0,0,0,.04-.575,4.584,4.584,0,0,0-9.169,0c0,.01,0,.018,0,.027l-.1-.008-3.89-.733A3.313,3.313,0,0,1,0,42.371,2.625,2.625,0,0,1,.894,40.266Zm22.573-2.678,8.5.26c-.156-1.273.6-1.559.6-1.559-3.378-3.066-10.187-3.17-10.187-3.17ZM13.929,37.2l7.744.26-.7-4.34a18.345,18.345,0,0,0-6.289.831L13.539,35.8Zm-4.366-.027h2.158l2.157-2.962c-1.618.644-2.914,1.279-3.685,1.68A1.2,1.2,0,0,0,9.563,37.173Z" transform="translate(0.001 -31.876)"/></g><g transform="translate(161.412 0)"><path class="m" d="M13.624,52.156a3.817,3.817,0,0,1,3.817,3.817,3.708,3.708,0,0,1-.034.479A3.814,3.814,0,0,1,9.823,56.3c-.009-.107-.016-.216-.016-.326A3.816,3.816,0,0,1,13.624,52.156Zm1.911,2.379-.778.779a1.318,1.318,0,0,1,.139.335h1.1A2.358,2.358,0,0,0,15.535,54.535ZM16,56.31H14.892a1.28,1.28,0,0,1-.139.331l.78.78A2.388,2.388,0,0,0,16,56.31Zm-2.043,2.035a2.378,2.378,0,0,0,1.107-.46l-.776-.776a1.314,1.314,0,0,1-.331.134Zm0-3.641a1.326,1.326,0,0,1,.337.141l.777-.777a2.372,2.372,0,0,0-1.115-.461Zm-.661-1.1a2.376,2.376,0,0,0-1.115.462l.777.777a1.326,1.326,0,0,1,.337-.141V53.6Zm0,4.739v-1.1a1.3,1.3,0,0,1-.331-.135l-.776.776A2.379,2.379,0,0,0,13.293,58.344Zm-1.581-.92.783-.784a1.29,1.29,0,0,1-.142-.33h-1.1A2.381,2.381,0,0,0,11.713,57.424Zm.639-1.775a1.337,1.337,0,0,1,.139-.335l-.779-.779a2.383,2.383,0,0,0-.457,1.114h1.1Z" transform="translate(28.134 -41.79)"/><path class="m" d="M75.633,52.156a3.817,3.817,0,0,1,3.817,3.817,3.706,3.706,0,0,1-.034.479,3.814,3.814,0,0,1-7.585-.154c-.009-.107-.016-.216-.016-.326A3.816,3.816,0,0,1,75.633,52.156Zm1.911,2.379-.777.779a1.318,1.318,0,0,1,.139.335H78A2.364,2.364,0,0,0,77.544,54.535Zm.462,1.775H76.9a1.28,1.28,0,0,1-.139.331l.78.78A2.368,2.368,0,0,0,78.006,56.31Zm-2.043,2.035a2.378,2.378,0,0,0,1.107-.46l-.776-.776a1.314,1.314,0,0,1-.331.134Zm0-3.641a1.326,1.326,0,0,1,.337.141l.777-.777a2.37,2.37,0,0,0-1.115-.461ZM75.3,53.6a2.376,2.376,0,0,0-1.115.462l.777.777A1.29,1.29,0,0,1,75.3,54.7Zm0,4.739v-1.1a1.3,1.3,0,0,1-.331-.135l-.776.776A2.381,2.381,0,0,0,75.3,58.344Zm-1.58-.92.783-.783a1.276,1.276,0,0,1-.142-.331h-1.1A2.376,2.376,0,0,0,73.722,57.424Zm.639-1.775a1.318,1.318,0,0,1,.139-.335l-.779-.779a2.383,2.383,0,0,0-.457,1.114h1.1Z" transform="translate(-65.572 -41.79)"/><path class="m" d="M.894,40.266V37.442a.92.92,0,0,1,.779-.909,37.6,37.6,0,0,0,3.844-.751c1.23-.379,5.982-2.391,7.627-2.769s9.067-2.395,16.175.069c1.2.417,6.613,3,9.795,4.348.937.02,10.211,1.954,10.7,3.279a21.429,21.429,0,0,1,.74,2.3,5.434,5.434,0,0,1-.689,3.067,11.069,11.069,0,0,1-3.618.843c.018-.1.037-.19.05-.286a4.4,4.4,0,0,0,.04-.575,4.584,4.584,0,1,0-9.168,0c0,.13.009.259.018.385a4.461,4.461,0,0,0,.149.825h-.012l-22.755-.458c.01-.059.024-.117.031-.177a4.378,4.378,0,0,0,.04-.575,4.584,4.584,0,0,0-9.169,0c0,.01,0,.018,0,.027l-.1-.008-3.89-.733A3.313,3.313,0,0,1,0,42.371,2.625,2.625,0,0,1,.894,40.266Zm22.573-2.678,8.5.26c-.156-1.273.6-1.559.6-1.559-3.378-3.066-10.187-3.17-10.187-3.17ZM13.929,37.2l7.744.26-.7-4.34a18.345,18.345,0,0,0-6.289.831L13.539,35.8Zm-4.366-.027h2.158l2.157-2.962c-1.618.644-2.914,1.279-3.685,1.68A1.2,1.2,0,0,0,9.563,37.173Z" transform="translate(0.001 -31.876)"/></g><g transform="translate(78.27 23.935)"><path class="m" d="M13.624,52.156a3.817,3.817,0,0,1,3.817,3.817,3.708,3.708,0,0,1-.034.479A3.814,3.814,0,0,1,9.823,56.3c-.009-.107-.016-.216-.016-.326A3.816,3.816,0,0,1,13.624,52.156Zm1.911,2.379-.778.779a1.318,1.318,0,0,1,.139.335h1.1A2.358,2.358,0,0,0,15.535,54.535ZM16,56.31H14.892a1.28,1.28,0,0,1-.139.331l.78.78A2.388,2.388,0,0,0,16,56.31Zm-2.043,2.035a2.378,2.378,0,0,0,1.107-.46l-.776-.776a1.314,1.314,0,0,1-.331.134Zm0-3.641a1.326,1.326,0,0,1,.337.141l.777-.777a2.372,2.372,0,0,0-1.115-.461Zm-.661-1.1a2.376,2.376,0,0,0-1.115.462l.777.777a1.326,1.326,0,0,1,.337-.141V53.6Zm0,4.739v-1.1a1.3,1.3,0,0,1-.331-.135l-.776.776A2.379,2.379,0,0,0,13.293,58.344Zm-1.581-.92.783-.784a1.29,1.29,0,0,1-.142-.33h-1.1A2.381,2.381,0,0,0,11.713,57.424Zm.639-1.775a1.337,1.337,0,0,1,.139-.335l-.779-.779a2.383,2.383,0,0,0-.457,1.114h1.1Z" transform="translate(22.976 -42.541)"/><path class="m" d="M75.633,52.156a3.817,3.817,0,0,1,3.817,3.817,3.706,3.706,0,0,1-.034.479,3.814,3.814,0,0,1-7.585-.154c-.009-.107-.016-.216-.016-.326A3.816,3.816,0,0,1,75.633,52.156Zm1.911,2.379-.777.779a1.318,1.318,0,0,1,.139.335H78A2.364,2.364,0,0,0,77.544,54.535Zm.462,1.775H76.9a1.28,1.28,0,0,1-.139.331l.78.78A2.368,2.368,0,0,0,78.006,56.31Zm-2.043,2.035a2.378,2.378,0,0,0,1.107-.46l-.776-.776a1.314,1.314,0,0,1-.331.134Zm0-3.641a1.326,1.326,0,0,1,.337.141l.777-.777a2.37,2.37,0,0,0-1.115-.461ZM75.3,53.6a2.376,2.376,0,0,0-1.115.462l.777.777A1.29,1.29,0,0,1,75.3,54.7Zm0,4.739v-1.1a1.3,1.3,0,0,1-.331-.135l-.776.776A2.381,2.381,0,0,0,75.3,58.344Zm-1.58-.92.783-.783a1.276,1.276,0,0,1-.142-.331h-1.1A2.376,2.376,0,0,0,73.722,57.424Zm.639-1.775a1.318,1.318,0,0,1,.139-.335l-.779-.779a2.383,2.383,0,0,0-.457,1.114h1.1Z" transform="translate(-67.698 -42.541)"/><path class="m" d="M44.921,40.094V37.328a.882.882,0,0,0-.7-.891,31.677,31.677,0,0,1-3.475-.736c-1.112-.372-5.407-2.342-6.895-2.712s-8.2-2.346-14.621.068c-1.087.408-5.978,2.941-8.854,4.259-.847.02-9.23,1.914-9.677,3.211a22.287,22.287,0,0,0-.669,2.258,5.7,5.7,0,0,0,.623,3,9.378,9.378,0,0,0,3.27.826c-.016-.094-.034-.186-.045-.28a4.66,4.66,0,0,1-.036-.563,4.332,4.332,0,0,1,4.144-4.491,4.332,4.332,0,0,1,4.144,4.491c0,.127-.008.253-.017.378a4.7,4.7,0,0,1-.135.808h.011l20.57-.449c-.009-.058-.021-.115-.028-.173a4.641,4.641,0,0,1-.036-.563,4.332,4.332,0,0,1,4.144-4.49,4.332,4.332,0,0,1,4.144,4.49c0,.01,0,.018,0,.027l.088-.008,3.517-.717a3.3,3.3,0,0,0,1.347-2.915A2.649,2.649,0,0,0,44.921,40.094Zm-20.4-2.623-7.682.255c.141-1.247-.54-1.527-.54-1.527,3.054-3,9.209-3.105,9.209-3.105Zm8.621-.381-7,.255.634-4.251a15.424,15.424,0,0,1,5.685.814l1.034,1.807Zm3.947-.026h-1.95l-1.95-2.9a35.632,35.632,0,0,1,3.331,1.646A1.211,1.211,0,0,1,37.084,37.064Z" transform="translate(0.001 -31.876)"/></g><g transform="translate(240.27 23.935)"><path class="m" d="M13.624,52.156a3.817,3.817,0,0,1,3.817,3.817,3.708,3.708,0,0,1-.034.479A3.814,3.814,0,0,1,9.823,56.3c-.009-.107-.016-.216-.016-.326A3.816,3.816,0,0,1,13.624,52.156Zm1.911,2.379-.778.779a1.318,1.318,0,0,1,.139.335h1.1A2.358,2.358,0,0,0,15.535,54.535ZM16,56.31H14.892a1.28,1.28,0,0,1-.139.331l.78.78A2.388,2.388,0,0,0,16,56.31Zm-2.043,2.035a2.378,2.378,0,0,0,1.107-.46l-.776-.776a1.314,1.314,0,0,1-.331.134Zm0-3.641a1.326,1.326,0,0,1,.337.141l.777-.777a2.372,2.372,0,0,0-1.115-.461Zm-.661-1.1a2.376,2.376,0,0,0-1.115.462l.777.777a1.326,1.326,0,0,1,.337-.141V53.6Zm0,4.739v-1.1a1.3,1.3,0,0,1-.331-.135l-.776.776A2.379,2.379,0,0,0,13.293,58.344Zm-1.581-.92.783-.784a1.29,1.29,0,0,1-.142-.33h-1.1A2.381,2.381,0,0,0,11.713,57.424Zm.639-1.775a1.337,1.337,0,0,1,.139-.335l-.779-.779a2.383,2.383,0,0,0-.457,1.114h1.1Z" transform="translate(22.976 -42.541)"/><path class="m" d="M75.633,52.156a3.817,3.817,0,0,1,3.817,3.817,3.706,3.706,0,0,1-.034.479,3.814,3.814,0,0,1-7.585-.154c-.009-.107-.016-.216-.016-.326A3.816,3.816,0,0,1,75.633,52.156Zm1.911,2.379-.777.779a1.318,1.318,0,0,1,.139.335H78A2.364,2.364,0,0,0,77.544,54.535Zm.462,1.775H76.9a1.28,1.28,0,0,1-.139.331l.78.78A2.368,2.368,0,0,0,78.006,56.31Zm-2.043,2.035a2.378,2.378,0,0,0,1.107-.46l-.776-.776a1.314,1.314,0,0,1-.331.134Zm0-3.641a1.326,1.326,0,0,1,.337.141l.777-.777a2.37,2.37,0,0,0-1.115-.461ZM75.3,53.6a2.376,2.376,0,0,0-1.115.462l.777.777A1.29,1.29,0,0,1,75.3,54.7Zm0,4.739v-1.1a1.3,1.3,0,0,1-.331-.135l-.776.776A2.381,2.381,0,0,0,75.3,58.344Zm-1.58-.92.783-.783a1.276,1.276,0,0,1-.142-.331h-1.1A2.376,2.376,0,0,0,73.722,57.424Zm.639-1.775a1.318,1.318,0,0,1,.139-.335l-.779-.779a2.383,2.383,0,0,0-.457,1.114h1.1Z" transform="translate(-67.698 -42.541)"/><path class="m" d="M44.921,40.094V37.328a.882.882,0,0,0-.7-.891,31.677,31.677,0,0,1-3.475-.736c-1.112-.372-5.407-2.342-6.895-2.712s-8.2-2.346-14.621.068c-1.087.408-5.978,2.941-8.854,4.259-.847.02-9.23,1.914-9.677,3.211a22.287,22.287,0,0,0-.669,2.258,5.7,5.7,0,0,0,.623,3,9.378,9.378,0,0,0,3.27.826c-.016-.094-.034-.186-.045-.28a4.66,4.66,0,0,1-.036-.563,4.332,4.332,0,0,1,4.144-4.491,4.332,4.332,0,0,1,4.144,4.491c0,.127-.008.253-.017.378a4.7,4.7,0,0,1-.135.808h.011l20.57-.449c-.009-.058-.021-.115-.028-.173a4.641,4.641,0,0,1-.036-.563,4.332,4.332,0,0,1,4.144-4.49,4.332,4.332,0,0,1,4.144,4.49c0,.01,0,.018,0,.027l.088-.008,3.517-.717a3.3,3.3,0,0,0,1.347-2.915A2.649,2.649,0,0,0,44.921,40.094Zm-20.4-2.623-7.682.255c.141-1.247-.54-1.527-.54-1.527,3.054-3,9.209-3.105,9.209-3.105Zm8.621-.381-7,.255.634-4.251a15.424,15.424,0,0,1,5.685.814l1.034,1.807Zm3.947-.026h-1.95l-1.95-2.9a35.632,35.632,0,0,1,3.331,1.646A1.211,1.211,0,0,1,37.084,37.064Z" transform="translate(0.001 -31.876)"/></g></g><g transform="translate(0 469.619)"><path class="n" d="M298.275,220.429V155.9H277.5v64.529" transform="translate(-78.045 -98.16)"/><path class="n" d="M285.8,222.161V167.471A4.229,4.229,0,0,1,290,163.2h0a4.229,4.229,0,0,1,4.2,4.271v54.689" transform="translate(-80.077 -99.892)"/><g transform="translate(292.05)"><rect class="n" width="24.525" height="4.729" transform="translate(1.275)"/><rect class="n" width="21.6" height="3.051" transform="translate(2.775 4.729)"/><rect class="n" width="11.325" height="10.907" transform="translate(7.875 7.78)"/><rect class="n" width="21.6" height="2.898" transform="translate(2.775 18.687)"/><rect class="n" width="1.725" height="4.195" transform="translate(12.675 11.136)"/><rect class="n" width="1.725" height="4.195" transform="translate(9.45 11.136)"/><rect class="n" width="1.725" height="4.195" transform="translate(17.657 15.287) rotate(180)"/><path class="n" d="M433.575,108.5h-21.6l-2.775,2.67h27.15Z" transform="translate(-409.2 -86.914)"/><rect class="n" width="21.6" height="2.898" transform="translate(24.336 37.754) rotate(180)"/><path class="n" d="M411.975,125.146h21.6l2.775-2.746H409.2Z" transform="translate(-409.2 -90.212)"/><rect class="n" width="1.425" height="5.11" transform="translate(0 24.255)"/><rect class="n" width="1.425" height="5.11" transform="translate(3.675 24.255)"/><rect class="n" width="1.425" height="5.11" transform="translate(7.35 24.255)"/><rect class="n" width="1.425" height="5.11" transform="translate(11.025 24.255)"/><rect class="n" width="1.425" height="5.11" transform="translate(14.7 24.255)"/><rect class="n" width="1.425" height="5.11" transform="translate(18.375 24.255)"/><rect class="n" width="1.425" height="5.11" transform="translate(22.05 24.255)"/><rect class="n" width="1.425" height="5.11" transform="translate(25.725 24.255)"/><rect class="n" width="27.15" height="2.822" transform="translate(0 29.366)"/><rect class="n" width="2.25" height="9" transform="translate(12.45 37.756)"/><rect class="n" width="2.25" height="9" transform="translate(7.35 37.756)"/><line class="n" x2="4.575" y2="4.653" transform="translate(2.775 37.756)"/><rect class="n" width="2.25" height="9" transform="translate(19.775 46.806) rotate(180)"/><line class="n" x1="4.575" y2="4.653" transform="translate(19.8 37.756)"/><path class="n" d="M425.225,141.5H419v4.043h12.45V141.5Z" transform="translate(-411.65 -94.743)"/><path class="n" d="M431.45,218.27V146.8H419v71.47" transform="translate(-411.65 -96.001)"/><path class="n" d="M430.5,219.005V151.731a1.841,1.841,0,0,0-1.8-1.831h0a1.841,1.841,0,0,0-1.8,1.831v67.275h-2.1V151.731A1.841,1.841,0,0,0,423,149.9h0a1.841,1.841,0,0,0-1.8,1.831v67.275" transform="translate(-412.2 -96.736)"/></g><g transform="translate(11.325 34.934)"><path class="n" d="M41.825,213.335V126H38.75v5.873H35.825V126h-3v5.873h-3V126h-3v5.873H23.9V126h-3v5.873h-3V126h-3v87.335" transform="translate(-14.9 -126)"/><path class="n" d="M76.225,221.354V159.8H70.9v5.873H67.975V159.8h-3v5.873h-3V159.8h-3v5.873H56.05V159.8H50.8v61.554" transform="translate(-23.875 -134.019)"/><line class="n" y2="81.462" transform="translate(4.425 5.873)"/><line class="n" y2="81.462" transform="translate(22.425 5.873)"/><path class="n" d="M35.4,161.8H27.6v-9.229a3.907,3.907,0,0,1,3.9-3.966h0a3.907,3.907,0,0,1,3.9,3.966Z" transform="translate(-18.075 -131.362)"/><rect class="n" width="7.8" height="7.933" transform="translate(9.525 46.07)"/><path class="n" d="M111.55,213.335V126h-3v5.873h-2.925V126H102.55v5.873H99.625V126h-3v5.873h-3V126h-3v5.873H87.7V126h-3v87.335" transform="translate(-32.35 -126)"/><line class="n" y2="81.462" transform="translate(56.7 5.873)"/><line class="n" y2="81.462" transform="translate(74.7 5.873)"/><path class="n" d="M105.2,161.8H97.4v-9.229a3.907,3.907,0,0,1,3.9-3.966h0a3.907,3.907,0,0,1,3.9,3.966Z" transform="translate(-35.525 -131.362)"/><rect class="n" width="7.8" height="7.933" transform="translate(61.875 46.07)"/><path class="n" d="M76.225,196.8h0Z" transform="translate(-23.875 -142.797)"/><path class="n" d="M76.225,201.6h0Z" transform="translate(-23.875 -143.936)"/><ellipse class="n" cx="8.7" cy="8.848" rx="8.7" ry="8.848" transform="translate(30.9 34.934)"/><path class="n" d="M70.9,181.882A4.8,4.8,0,1,1,66.1,177,4.826,4.826,0,0,1,70.9,181.882Z" transform="translate(-26.5 -138.1)"/><path class="n" d="M72.95,231.271V208.236L65.075,201.6,57.2,208.236v23.035" transform="translate(-25.475 -143.936)"/></g><g transform="translate(229.139 41.57)"><rect class="n" width="4.575" height="27.764" transform="translate(17.7 52.859)"/><rect class="n" width="4.575" height="27.764" transform="translate(13.125 52.859)"/><rect class="n" width="4.575" height="27.764" transform="translate(0 52.859)"/><path class="n" d="M335.45,235.8V225.048a4.31,4.31,0,0,0-4.275-4.348h0a4.31,4.31,0,0,0-4.275,4.348V235.8" transform="translate(-322.325 -155.104)"/><rect class="n" width="4.95" height="8.467" transform="translate(6.375 54.689)"/><line class="n" x2="4.95" transform="translate(6.375 58.884)"/><line class="n" y2="8.467" transform="translate(8.85 54.689)"/><rect class="n" width="22.275" height="2.67" transform="translate(0 50.265)"/><rect class="n" width="22.275" height="2.67" transform="translate(0 37.222)"/><rect class="n" width="22.275" height="10.297" transform="translate(0 39.892)"/><path class="n" d="M320.8,175.932l12.15-10.678,2.475,10.678V151.6H352.75" transform="translate(-320.8 -138.71)"/><rect class="n" width="4.425" height="13.348" transform="translate(17.1 15.941)"/><rect class="n" width="8.7" height="3.89" transform="translate(13.125 5.873)"/><path class="n" d="M353.1,141.827l2.775-3.127,2.85,3.127Z" transform="translate(-328.875 -135.649)"/><rect class="n" width="4.575" height="27.764" transform="translate(46.234 80.697) rotate(180)"/><rect class="n" width="4.575" height="27.764" transform="translate(50.813 80.697) rotate(180)"/><rect class="n" width="4.575" height="27.764" transform="translate(63.913 80.697) rotate(180)"/><path class="n" d="M388.6,235.8V225.048a4.31,4.31,0,0,1,4.275-4.348h0a4.309,4.309,0,0,1,4.275,4.348V235.8" transform="translate(-337.75 -155.104)"/><rect class="n" width="4.95" height="8.467" transform="translate(57.551 63.119) rotate(180)"/><line class="n" x1="4.875" transform="translate(52.65 58.884)"/><line class="n" y2="8.467" transform="translate(55.125 54.689)"/><rect class="n" width="22.275" height="2.67" transform="translate(63.924 52.858) rotate(180)"/><rect class="n" width="22.275" height="2.67" transform="translate(63.924 39.942) rotate(180)"/><rect class="n" width="22.275" height="10.297" transform="translate(63.924 50.252) rotate(180)"/><path class="n" d="M395.425,175.932l-12.15-10.678L380.8,175.932V151.6H363.4" transform="translate(-331.45 -138.71)"/><path class="n" d="M369.925,180.711a9.492,9.492,0,0,0-9.45-9.611h-.525a9.492,9.492,0,0,0-9.45,9.611" transform="translate(-328.225 -143.336)"/><rect class="n" width="4.425" height="13.348" transform="translate(46.868 29.331) rotate(180)"/><path class="n" d="M357.125,147.5H338.3v3.127h37.725V147.5Z" transform="translate(-325.175 -137.737)"/><rect class="n" width="8.7" height="3.89" transform="translate(50.864 9.72) rotate(180)"/><path class="n" d="M360.825,142.8H353.1v3.585h15.525V142.8Z" transform="translate(-328.875 -136.622)"/><path class="n" d="M362.7,134.7l-2.1,6.178h4.275Z" transform="translate(-330.75 -134.7)"/><path class="n" d="M371.925,141.827,369.15,138.7l-2.85,3.127Z" transform="translate(-332.175 -135.649)"/></g><line class="n" x1="17.925" transform="translate(213.465 122.269)"/><line class="n" x2="11.325" transform="translate(289.725 122.269)"/><line class="n" x2="13.575" transform="translate(310.35 122.269)"/><line class="n" x1="20.325" transform="translate(185.963 122.269)"/><line class="n" x1="11.475" transform="translate(82.475 122.269)"/><line class="n" x1="15.75" transform="translate(0 122.269)"/><line class="n" x1="13.575" transform="translate(346.425 122.269)"/><g transform="translate(90.85 41.265)"><path class="n" d="M164.9,163.1v3.2h-2.7v-3.2h-3.45v3.2h-2.7v-3.2H152.6v3.2h-2.7v-3.2h-3.45v3.2h-2.7v-3.2H140.3v3.2h-2.775v-3.2H134.15v3.2h-2.775v-3.2H128v6.407h40.35V163.1Z" transform="translate(-128 -141.133)"/><path class="n" d="M165.275,159.471V139.563L162.05,134.3l-3.15,5.263v19.908" transform="translate(-135.725 -134.3)"/><path class="n" d="M153.225,146H151.95v-2.9H148.5V146h-2.7v-2.9h-3.45V146h-2.775v-2.9H136.2v6.407h17.025" transform="translate(-130.05 -136.388)"/><path class="n" d="M167.4,149.507h4.65V143.1H168.6V146h-1.2" transform="translate(-137.85 -136.388)"/><line class="n" y1="8.848" transform="translate(7.875 13.119)"/><line class="n" y1="8.848" transform="translate(32.625 13.119)"/><path class="n" d="M171.5,152.436l5.25-5.339v-7.856l-2.475-2.441-2.475,2.517v2.288" transform="translate(-138.875 -134.893)"/><path class="n" d="M136.75,152.436,131.5,147.1v-7.856l2.4-2.441,2.55,2.517v2.288" transform="translate(-128.875 -134.893)"/><rect class="n" width="37.65" height="5.873" transform="translate(1.35 28.374)"/><path class="n" d="M167.45,225.957V179.2H129.8v46.757" transform="translate(-128.45 -144.953)"/><rect class="n" width="6" height="6.102" transform="translate(17.175 40.044)"/><rect class="n" width="6" height="6.102" transform="translate(17.175 52.401)"/><rect class="n" width="6" height="6.102" transform="translate(17.175 65.673)"/><path class="n" d="M239.025,232.5V206.8H235.65V210h-2.775v-3.2h-3.45V210h-2.7v-3.2h-3.45V210h-2.7v-3.2H216.9V210h-2.475v-3.2H210.75V210h-2.475v-3.2H204.6V210h-2.55v-3.2h-3.6V210h-2.775v-3.2H192.3V210h-2.775v-3.2H186.15V210h-2.775v-3.2H180v7.246" transform="translate(-141 -151.501)"/><path class="n" d="M258.775,216.555l4.8-4.882v-7.933l-2.4-2.441-2.475,2.593v2.288" transform="translate(-160.675 -150.196)"/><line class="n" x2="59.025" transform="translate(39 62.545)"/><rect class="n" width="5.925" height="2.822" transform="translate(42.75 75.97)"/><rect class="n" width="5.925" height="2.822" transform="translate(65.55 75.97)"/><rect class="n" width="5.925" height="2.822" transform="translate(88.35 75.97)"/></g><rect class="n" width="30.075" height="3.204" transform="translate(320.1 74.749)"/><rect class="n" width="30.075" height="5.873" transform="translate(320.1 97.632)"/><rect class="n" width="6.975" height="2.212" transform="translate(321.825 77.953)"/><rect class="n" width="5.175" height="15.026" transform="translate(322.65 80.165)"/><rect class="n" width="6.975" height="2.517" transform="translate(321.825 95.115)"/><rect class="n" width="6.975" height="2.212" transform="translate(331.725 77.953)"/><rect class="n" width="5.175" height="15.026" transform="translate(332.625 80.165)"/><rect class="n" width="6.975" height="2.517" transform="translate(331.725 95.115)"/><rect class="n" width="6.975" height="2.212" transform="translate(341.625 77.953)"/><rect class="n" width="5.175" height="15.026" transform="translate(342.525 80.165)"/><rect class="n" width="6.975" height="2.517" transform="translate(341.625 95.115)"/><line class="n" y2="18.764" transform="translate(321.825 103.505)"/><line class="n" y2="18.764" transform="translate(348.6 103.505)"/><path class="n" d="M451.7,235.423V221.846a2.712,2.712,0,0,1,2.7-2.746h0a2.712,2.712,0,0,1,2.7,2.746v13.577h3.075V221.846a2.712,2.712,0,0,1,2.7-2.746h0a2.712,2.712,0,0,1,2.7,2.746v13.577h3.075V221.846a2.712,2.712,0,0,1,2.7-2.746h0a2.712,2.712,0,0,1,2.7,2.746v13.577" transform="translate(-127.775 -113.154)"/><rect class="n" width="3.975" height="9.763" transform="translate(326.775 63.537)"/><rect class="n" width="3.975" height="9.763" transform="translate(333.225 63.537)"/><rect class="n" width="3.975" height="9.763" transform="translate(339.675 63.537)"/><line class="n" y1="5.644" transform="translate(334.65 34.4)"/><path class="n" d="M475.65,171.438v-7.78l-2.4-2.441v-6.483h-6.075s-.075-5.034-4.95-5.034-4.95,5.034-4.95,5.034H451.2v6.483l-2.4,2.441v7.856" transform="translate(-127.05 -96.689)"/><path class="n" d="M473.7,151.719c0-7.246-4.725-13.119-10.5-13.119s-10.5,5.873-10.5,13.119" transform="translate(-128.025 -94.055)"/><path class="n" d="M469.75,138.421V137.2a4.426,4.426,0,1,0-8.85,0v1.22" transform="translate(-130.075 -92.656)"/><line class="n" y1="5.644" transform="translate(335.7 34.4)"/></g><g transform="translate(76.769 322.177)"><text class="o" transform="translate(4.231 63)"><tspan x="0" y="0">TRAVEL</tspan></text><text class="p" transform="translate(0 111)"><tspan x="0" y="0" xml:space="preserve">P  L  A  C  E</tspan></text></g><g transform="matrix(0.839, -0.545, 0.545, 0.839, -158.166, 70.423)"><g transform="matrix(0.951, 0.309, -0.309, 0.951, 20.714, 59.633)"><path class="c" d="M0,101.472S75.8-41.722,233.507,12.1"/></g><g transform="translate(124.479 132.978) rotate(-18)"><path class="c" d="M231.408,101.472S156.288-41.722,0,12.1" transform="translate(0 0)"/></g><g transform="translate(133.018 159.108) rotate(-176)"><g transform="translate(0 2.514)"><g transform="translate(0)"><path class="d" d="M2.258,0,0,2.258,6.312,4.731,9.85,1.192Z"/></g></g><g transform="translate(0.035 0)"><g transform="translate(0 0)"><path class="d" d="M17.645.356C17.216-.073,16.476-.115,15.5.234a5.185,5.185,0,0,0-1.707.978L4.976,10.032l-3.363.2L0,11.842l2.635,1.271,1.251-1.251,1.47.026L3.644,13.6l.005,0L2.627,14.625l.748.748L4.4,14.352l0,.01,1.715-1.715v1.5L4.889,15.371,6.159,18l1.612-1.612.2-3.363L16.789,4.2A5.184,5.184,0,0,0,17.767,2.5C18.115,1.525,18.073.784,17.645.356Z"/></g></g><g transform="translate(10.84 8.174)"><g transform="translate(0)"><path class="d" d="M3.533,0,0,3.533,2.462,9.819,4.721,7.561Z"/></g></g></g><g transform="translate(249.734 159.148) rotate(-176)"><g transform="translate(8.185 2.514)"><g transform="translate(0 0)"><path class="d" d="M7.591,0,9.85,2.259,3.538,4.731,0,1.192Z"/></g></g><g transform="translate(0 0)"><path class="d" d="M.356.356C.784-.073,1.525-.115,2.5.234A5.185,5.185,0,0,1,4.2,1.211l8.821,8.821,3.363.2L18,11.842l-2.635,1.271-1.251-1.251-1.47.026L14.356,13.6l-.005,0,1.022,1.022-.748.748L13.6,14.352l0,.01-1.715-1.715v1.5l1.227,1.227L11.841,18l-1.612-1.612-.2-3.363L1.211,4.2A5.184,5.184,0,0,1,.234,2.5C-.115,1.525-.073.784.356.356Z"/></g><g transform="translate(2.475 8.174)"><g transform="translate(0 0)"><path class="d" d="M1.188,0,4.721,3.533,2.258,9.819,0,7.561Z"/></g></g></g></g><g class="q" transform="translate(159.546 -54)"><path class="d" d="M260.885,3.094V146.374q-.523.3-1.047.578c-.359.193-.718.375-1.086.549-.309.164-.628.308-.947.452-.648.308-1.306.587-1.974.857-.339.135-.668.26-1.017.385-.189.067-.389.135-.578.212q-.583.217-1.166.4a42.254,42.254,0,0,1-8.612,1.8h-.05c-.1.01-.2.029-.3.038-.12.01-.239.029-.359.029-1.037.1-2.1.144-3.17.164-.538.01-1.076.01-1.6-.01-.359-.01-.718-.029-1.076-.048a.086.086,0,0,1-.05,0c-.4-.01-.8-.038-1.2-.077q-1.151-.072-2.273-.231c-.169-.019-.349-.048-.518-.077-.12-.01-.239-.029-.359-.038l-.468-.087c-.279-.038-.558-.1-.827-.144s-.528-.1-.777-.154a2.449,2.449,0,0,1-.259-.048c-.08-.019-.149-.038-.219-.058h-.04c-.458-.1-.927-.212-1.385-.327-.269-.067-.528-.135-.787-.212-.289-.077-.568-.144-.837-.231-.15-.048-.3-.087-.449-.135-.329-.106-.668-.212-1.007-.327s-.668-.221-1.007-.347-.658-.241-.987-.375c-.259-.1-.518-.2-.767-.308a4.586,4.586,0,0,1-.5-.221c-.269-.106-.548-.231-.817-.356-.439-.193-.857-.395-1.286-.616-.16-.067-.309-.154-.468-.231-.309-.154-.608-.318-.907-.472a42.276,42.276,0,0,1-4.7-2.994c-.419-.308-.827-.626-1.236-.953-.3-.212-.578-.452-.867-.693-.229-.2-.478-.4-.718-.616-.588-.52-1.166-1.049-1.724-1.608l-.319-.308c-.09-.1-.189-.2-.289-.3-.13-.144-.279-.279-.4-.433-.219-.231-.439-.462-.648-.7-.2-.212-.389-.424-.578-.645-.439-.5-.857-1.011-1.256-1.521-.16-.2-.319-.414-.468-.635-.169-.221-.339-.443-.508-.674-.239-.327-.459-.655-.688-.991-.578-.847-1.116-1.723-1.625-2.618a35.309,35.309,0,0,1-42.232,3.61c-.558.732-1.146,1.425-1.764,2.1-.219.26-.449.491-.688.751-.379.395-.767.8-1.176,1.184-.319.3-.648.616-.987.914s-.668.587-1.017.876l-.189.154c-.289.241-.588.481-.887.712-.369.279-.738.549-1.1.818a38.622,38.622,0,0,1-22.038,7.2,42.538,42.538,0,0,1-6.778-.491A38.346,38.346,0,0,1,103,137.307l-.01-.01a34.392,34.392,0,0,1-38.175-4.178,25.439,25.439,0,0,1-40.946-3.7,15.243,15.243,0,0,1-8.592,2.753,14.551,14.551,0,1,1-.419-29.08,15.287,15.287,0,0,1,9.06,2.8,25.087,25.087,0,0,1,21.41-12.311,25.62,25.62,0,0,1,11.054,2.358A33.482,33.482,0,0,1,86.527,76.664,34.967,34.967,0,0,1,97.85,78.406a32.264,32.264,0,0,1-.558-5.516c-.259-18.838,15.32-34.306,34.826-34.566A35.885,35.885,0,0,1,157.2,47.95a35.03,35.03,0,0,1,20.094-9.424,22.09,22.09,0,0,1,20.553-14.275,23,23,0,0,1,5.851.712A44.848,44.848,0,0,1,243.632,0,45.683,45.683,0,0,1,254.477,1.14,44.69,44.69,0,0,1,260.885,3.094Z" transform="translate(0 0)"/><path class="r" d="M255.311,1.184a43.7,43.7,0,0,1,6.43,2.03v4.45A49.832,49.832,0,0,0,255.311,1.184Z" transform="translate(-0.855 0)"/><path class="r" d="M261.741,45.934v106.13q-.525.315-1.05.6c-.36.2-.72.39-1.09.57-.31.17-.63.32-.95.47-.65.32-1.31.61-1.98.89-.34.14-.67.27-1.02.4-.19.07-.39.14-.58.22q-.585.225-1.17.42a41.133,41.133,0,0,1-8.64,1.87h-.05c-.1.01-.2.03-.3.04-.12.01-.24.03-.36.03-1.04.1-2.11.15-3.18.17-.54.01-1.08.01-1.61-.01-.36-.01-.72-.03-1.08-.05-.02.01-.04,0-.05,0-.4-.01-.8-.04-1.2-.08q-1.155-.075-2.28-.24c-.17-.02-.35-.05-.52-.08-.12-.01-.24-.03-.36-.04l-1.3-.24c-.26-.04-.53-.1-.78-.16a2.379,2.379,0,0,1-.26-.05c-.08-.02-.15-.04-.22-.06h-.04c-.46-.1-.93-.22-1.39-.34-.27-.07-.53-.14-.79-.22-.29-.08-.57-.15-.84-.24-.15-.05-.3-.09-.45-.14-.33-.11-.67-.22-1.01-.34s-.67-.23-1.01-.36-.66-.25-.99-.39c-.26-.1-.52-.21-.77-.32a4.524,4.524,0,0,1-.5-.23c-.27-.11-.55-.24-.82-.37-.44-.2-.86-.41-1.29-.64-.16-.07-.31-.16-.47-.24-.31-.16-.61-.33-.91-.49a42.245,42.245,0,0,1-4.72-3.11c-.42-.32-.83-.65-1.24-.99-.3-.22-.58-.47-.87-.72-.23-.21-.48-.42-.72-.64-.59-.54-1.17-1.09-1.73-1.67l-.32-.32c-.09-.1-.19-.21-.29-.31-.13-.15-.28-.29-.4-.45-.22-.24-.44-.48-.65-.73-.2-.22-.39-.44-.58-.67-.44-.52-.86-1.05-1.26-1.58-.16-.21-.32-.43-.47-.66-.17-.23-.34-.46-.51-.7-.24-.34-.46-.68-.69-1.03-.58-.88-1.12-1.79-1.63-2.72a34.472,34.472,0,0,1-42.37,3.75c-.56.76-1.15,1.48-1.77,2.18-.22.27-.45.51-.69.78-.38.41-.77.83-1.18,1.23-.32.31-.65.64-.99.95s-.67.61-1.02.91l-.19.16c-.29.25-.59.5-.89.74-.37.29-.74.57-1.1.85a37.868,37.868,0,0,1-22.11,7.48,41.244,41.244,0,0,1-6.8-.51,38.08,38.08,0,0,1-21.9-11.99c.37.17,9.45,4.44,18.33-.3-.03-.43-.06-.87-.06-1.31a28.672,28.672,0,0,1,33.34-28.67,25.312,25.312,0,0,1-.76-5.76,25.006,25.006,0,0,1,42.02-18.68,32.049,32.049,0,0,1,20.23-9.81,34.137,34.137,0,0,1,39.23-25.5A30.636,30.636,0,0,1,261.741,45.934Z" transform="translate(-0.855 -5.902)"/><path class="s" d="M256.811,114.074a23.759,23.759,0,0,1,4.93-14.7v52.69q-.525.315-1.05.6c-.36.2-.72.39-1.09.57-.31.17-.63.32-.95.47-.65.32-1.31.61-1.98.89-.34.14-.67.27-1.02.4-.19.07-.39.14-.58.22q-.585.225-1.17.42a41.133,41.133,0,0,1-8.64,1.87c-.12.01-.23.03-.35.04s-.24.03-.36.03c-1.04.1-2.11.15-3.18.17-.54.01-1.08.01-1.61-.01-.36-.01-.72-.03-1.08-.05-.02.01-.04,0-.05,0-.4-.01-.8-.04-1.2-.08q-1.155-.075-2.28-.24c-.17-.02-.35-.05-.52-.08-.56-.08-1.11-.17-1.66-.28-.26-.04-.53-.1-.78-.16a2.379,2.379,0,0,1-.26-.05l-.26-.06c-.46-.1-.93-.22-1.39-.34-.27-.07-.53-.14-.79-.22-.29-.08-.57-.15-.84-.24-.15-.05-.3-.09-.45-.14-.33-.11-.67-.22-1.01-.34s-.67-.23-1.01-.36-.66-.25-.99-.39c-.26-.1-.52-.21-.77-.32a4.524,4.524,0,0,1-.5-.23c-.27-.11-.55-.24-.82-.37-.44-.2-.86-.41-1.29-.64-.16-.07-.31-.16-.47-.24-.31-.16-.61-.33-.91-.49a42.245,42.245,0,0,1-4.72-3.11c-.42-.32-.83-.65-1.24-.99-.3-.22-.58-.47-.87-.72-.23-.21-.48-.42-.72-.64-.59-.54-1.17-1.09-1.73-1.67-.2-.21-.41-.42-.61-.63-.13-.15-.28-.29-.4-.45-.22-.24-.44-.48-.65-.73-.2-.22-.39-.44-.58-.67-.44-.52-.86-1.05-1.26-1.58-.34-.45-.66-.9-.98-1.36-.24-.34-.46-.68-.69-1.03-.58-.88-1.12-1.79-1.63-2.72,0,0,13.41,7.01,27.25.99A36.219,36.219,0,0,1,256.811,114.074Z" transform="translate(-0.855 -5.902)"/></g></g></g></svg>